<?xml version="1.0" standalone="no"?>
<!DOCTYPE svg PUBLIC "-//W3C//DTD SVG 20010904//EN"
 "http://www.w3.org/TR/2001/REC-SVG-20010904/DTD/svg10.dtd">
<svg version="1.0" xmlns="http://www.w3.org/2000/svg"
 width="512.000000pt" height="512.000000pt" viewBox="0 0 512.000000 512.000000"
 preserveAspectRatio="xMidYMid meet">
<metadata>
Created by potrace 1.14, written by Peter Selinger 2001-2017
</metadata>
<g transform="translate(0.000000,512.000000) scale(0.100000,-0.100000)"
fill="#000000" stroke="none">
<path d="M0 2560 l0 -2560 2560 0 2560 0 0 2560 0 2560 -2560 0 -2560 0 0
-2560z m3510 -5 l0 -1495 -210 0 -210 0 0 1495 0 1495 210 0 210 0 0 -1495z
m-1350 1070 l0 -255 255 0 255 0 0 -165 0 -165 -255 0 -256 0 3 -712 c3 -652
5 -717 21 -757 26 -67 62 -108 120 -138 49 -26 61 -27 215 -31 l162 -4 0 -173
0 -172 -97 -6 c-116 -7 -302 7 -393 29 -176 43 -307 143 -375 286 -69 145 -68
133 -72 946 l-4 732 -170 0 -169 0 0 165 0 165 170 0 170 0 2 217 3 218 185
36 c102 21 195 38 208 38 l22 1 0 -255z"/>
</g>
</svg>
