<?xml version="1.0" standalone="no"?>
<!DOCTYPE svg PUBLIC "-//W3C//DTD SVG 20010904//EN"
 "http://www.w3.org/TR/2001/REC-SVG-20010904/DTD/svg10.dtd">
<svg version="1.0" xmlns="http://www.w3.org/2000/svg"
 width="512.000000pt" height="512.000000pt" viewBox="0 0 512.000000 512.000000"
 preserveAspectRatio="xMidYMid meet">
<metadata>
Created by potrace 1.14, written by Peter Selinger 2001-2017
</metadata>
<g transform="translate(0.000000,512.000000) scale(0.100000,-0.100000)"
fill="#000000" stroke="none">
<path d="M0 2560 l0 -2560 2560 0 2560 0 0 2560 0 2560 -2560 0 -2560 0 0
-2560z m3510 -5 l0 -1495 -210 0 -210 0 0 1495 0 1495 210 0 210 0 0 -1495z
m-1350 1070 l0 -255 255 0 255 0 0 -165 0 -165 -255 0 -256 0 3 -712 c3 -652
5 -717 21 -757 27 -70 65 -111 126 -140 52 -24 68 -26 214 -29 l157 -4 0 -172
0 -173 -100 -6 c-116 -7 -296 6 -390 29 -176 43 -307 143 -375 286 -69 145
-68 133 -72 946 l-4 732 -170 0 -169 0 0 165 0 165 170 0 170 0 0 215 c0 163
3 217 13 220 20 8 360 73 385 74 l22 1 0 -255z"/>
</g>
</svg>
